<?xml version="1.0" encoding="UTF-8"?>
<mxfile host="app.diagrams.net" modified="2024-12-19T12:00:00.000Z" agent="5.0" etag="example" version="24.0.0">
  <diagram name="CI/CD Deployment Architecture" id="cicd-deployment">
    <mxGraphModel dx="1422" dy="800" grid="1" gridSize="10" guides="1" tooltips="1" connect="1" arrows="1" fold="1" page="1" pageScale="1" pageWidth="1400" pageHeight="900" math="0" shadow="0">
      <root>
        <mxCell id="0" />
        <mxCell id="1" parent="0" />
        
        <!-- Title -->
        <mxCell id="title" value="Azure Communication Services Email MCP Tool - CI/CD &amp; Deployment Architecture" style="text;html=1;strokeColor=none;fillColor=none;align=center;verticalAlign=middle;whiteSpace=wrap;rounded=0;fontStyle=1;fontSize=18;fontColor=#0078D4;" vertex="1" parent="1">
          <mxGeometry x="300" y="20" width="800" height="30" as="geometry" />
        </mxCell>
        
        <!-- Development Phase -->
        <mxCell id="dev-phase" value="Development Phase" style="rounded=1;whiteSpace=wrap;html=1;fillColor=#E6F3FF;strokeColor=#0078D4;strokeWidth=2;fontStyle=1;fontSize=14;fontColor=#0078D4;verticalAlign=top;" vertex="1" parent="1">
          <mxGeometry x="50" y="80" width="400" height="200" as="geometry" />
        </mxCell>
        
        <!-- Developer -->
        <mxCell id="developer" value="" style="image;aspect=fixed;perimeter=ellipsePerimeter;html=1;align=center;shadow=0;dashed=0;spacingTop=3;image=img/lib/azure2/other/Visual_Studio_Code.svg;fontSize=12;" vertex="1" parent="1">
          <mxGeometry x="80" y="120" width="50" height="50" as="geometry" />
        </mxCell>
        
        <mxCell id="dev-label" value="Developer&#xa;Environment" style="text;html=1;strokeColor=none;fillColor=none;align=center;verticalAlign=middle;whiteSpace=wrap;rounded=0;fontSize=10;" vertex="1" parent="1">
          <mxGeometry x="65" y="175" width="80" height="30" as="geometry" />
        </mxCell>
        
        <!-- GitHub Codespaces -->
        <mxCell id="codespaces" value="" style="image;aspect=fixed;perimeter=ellipsePerimeter;html=1;align=center;shadow=0;dashed=0;spacingTop=3;image=img/lib/azure2/other/GitHub.svg;fontSize=12;" vertex="1" parent="1">
          <mxGeometry x="200" y="120" width="50" height="50" as="geometry" />
        </mxCell>
        
        <mxCell id="codespaces-label" value="GitHub&#xa;Codespaces" style="text;html=1;strokeColor=none;fillColor=none;align=center;verticalAlign=middle;whiteSpace=wrap;rounded=0;fontSize=10;" vertex="1" parent="1">
          <mxGeometry x="185" y="175" width="80" height="30" as="geometry" />
        </mxCell>
        
        <!-- Local Testing -->
        <mxCell id="local-testing" value="" style="image;aspect=fixed;perimeter=ellipsePerimeter;html=1;align=center;shadow=0;dashed=0;spacingTop=3;image=img/lib/azure2/compute/Function_Apps.svg;fontSize=12;" vertex="1" parent="1">
          <mxGeometry x="320" y="120" width="68" height="60" as="geometry" />
        </mxCell>
        
        <mxCell id="local-label" value="Local Functions&#xa;Testing" style="text;html=1;strokeColor=none;fillColor=none;align=center;verticalAlign=middle;whiteSpace=wrap;rounded=0;fontSize=10;" vertex="1" parent="1">
          <mxGeometry x="300" y="185" width="108" height="30" as="geometry" />
        </mxCell>
        
        <!-- Dev Tools List -->
        <mxCell id="dev-tools" value="Development Tools:&#xa;• .NET 8 SDK&#xa;• Azure Functions Core Tools&#xa;• Azure Developer CLI (azd)&#xa;• VS Code Extensions&#xa;• Docker (devcontainer)" style="text;html=1;strokeColor=none;fillColor=none;align=left;verticalAlign=top;whiteSpace=wrap;rounded=0;fontSize=9;fontColor=#333;" vertex="1" parent="1">
          <mxGeometry x="70" y="220" width="200" height="50" as="geometry" />
        </mxCell>
        
        <!-- Source Control Phase -->
        <mxCell id="source-phase" value="Source Control &amp; Quality Gates" style="rounded=1;whiteSpace=wrap;html=1;fillColor=#F0FFF0;strokeColor=#32CD32;strokeWidth=2;fontStyle=1;fontSize=14;fontColor=#228B22;verticalAlign=top;" vertex="1" parent="1">
          <mxGeometry x="500" y="80" width="400" height="200" as="geometry" />
        </mxCell>
        
        <!-- GitHub Repository -->
        <mxCell id="github-repo" value="" style="image;aspect=fixed;perimeter=ellipsePerimeter;html=1;align=center;shadow=0;dashed=0;spacingTop=3;image=img/lib/azure2/other/GitHub.svg;fontSize=12;" vertex="1" parent="1">
          <mxGeometry x="530" y="120" width="50" height="50" as="geometry" />
        </mxCell>
        
        <mxCell id="repo-label" value="GitHub&#xa;Repository" style="text;html=1;strokeColor=none;fillColor=none;align=center;verticalAlign=middle;whiteSpace=wrap;rounded=0;fontSize=10;" vertex="1" parent="1">
          <mxGeometry x="515" y="175" width="80" height="30" as="geometry" />
        </mxCell>
        
        <!-- Branch Protection -->
        <mxCell id="branch-protection" value="" style="image;aspect=fixed;perimeter=ellipsePerimeter;html=1;align=center;shadow=0;dashed=0;spacingTop=3;image=img/lib/azure2/security/Azure_Defender.svg;fontSize=12;" vertex="1" parent="1">
          <mxGeometry x="650" y="120" width="68" height="68" as="geometry" />
        </mxCell>
        
        <mxCell id="protection-label" value="Branch Protection&#xa;Rules" style="text;html=1;strokeColor=none;fillColor=none;align=center;verticalAlign=middle;whiteSpace=wrap;rounded=0;fontSize=10;" vertex="1" parent="1">
          <mxGeometry x="630" y="195" width="108" height="30" as="geometry" />
        </mxCell>
        
        <!-- Code Quality -->
        <mxCell id="code-quality" value="" style="image;aspect=fixed;perimeter=ellipsePerimeter;html=1;align=center;shadow=0;dashed=0;spacingTop=3;image=img/lib/azure2/other/Code.svg;fontSize=12;" vertex="1" parent="1">
          <mxGeometry x="790" y="120" width="68" height="68" as="geometry" />
        </mxCell>
        
        <mxCell id="quality-label" value="Code Quality&#xa;Checks" style="text;html=1;strokeColor=none;fillColor=none;align=center;verticalAlign=middle;whiteSpace=wrap;rounded=0;fontSize=10;" vertex="1" parent="1">
          <mxGeometry x="770" y="195" width="108" height="30" as="geometry" />
        </mxCell>
        
        <!-- Quality Gates -->
        <mxCell id="quality-gates" value="Quality Gates:&#xa;• Pull Request Reviews&#xa;• Automated Testing (18 tests)&#xa;• Code Coverage >90%&#xa;• Security Scanning&#xa;• Credential Scanning" style="text;html=1;strokeColor=none;fillColor=none;align=left;verticalAlign=top;whiteSpace=wrap;rounded=0;fontSize=9;fontColor=#333;" vertex="1" parent="1">
          <mxGeometry x="520" y="220" width="200" height="50" as="geometry" />
        </mxCell>
        
        <!-- CI/CD Pipeline Phase -->
        <mxCell id="pipeline-phase" value="CI/CD Pipeline (GitHub Actions)" style="rounded=1;whiteSpace=wrap;html=1;fillColor=#FFF0F5;strokeColor=#FF69B4;strokeWidth=2;fontStyle=1;fontSize=14;fontColor=#C71585;verticalAlign=top;" vertex="1" parent="1">
          <mxGeometry x="950" y="80" width="400" height="200" as="geometry" />
        </mxCell>
        
        <!-- Build Stage -->
        <mxCell id="build-stage" value="" style="image;aspect=fixed;perimeter=ellipsePerimeter;html=1;align=center;shadow=0;dashed=0;spacingTop=3;image=img/lib/azure2/other/Azure_DevOps.svg;fontSize=12;" vertex="1" parent="1">
          <mxGeometry x="980" y="120" width="68" height="68" as="geometry" />
        </mxCell>
        
        <mxCell id="build-label" value="Build &amp; Test&#xa;Stage" style="text;html=1;strokeColor=none;fillColor=none;align=center;verticalAlign=middle;whiteSpace=wrap;rounded=0;fontSize=10;" vertex="1" parent="1">
          <mxGeometry x="960" y="195" width="108" height="30" as="geometry" />
        </mxCell>
        
        <!-- Security Scan -->
        <mxCell id="security-scan" value="" style="image;aspect=fixed;perimeter=ellipsePerimeter;html=1;align=center;shadow=0;dashed=0;spacingTop=3;image=img/lib/azure2/security/Azure_Sentinel.svg;fontSize=12;" vertex="1" parent="1">
          <mxGeometry x="1120" y="120" width="68" height="68" as="geometry" />
        </mxCell>
        
        <mxCell id="scan-label" value="Security&#xa;Scanning" style="text;html=1;strokeColor=none;fillColor=none;align=center;verticalAlign=middle;whiteSpace=wrap;rounded=0;fontSize=10;" vertex="1" parent="1">
          <mxGeometry x="1100" y="195" width="108" height="30" as="geometry" />
        </mxCell>
        
        <!-- Deploy Stage -->
        <mxCell id="deploy-stage" value="" style="image;aspect=fixed;perimeter=ellipsePerimeter;html=1;align=center;shadow=0;dashed=0;spacingTop=3;image=img/lib/azure2/compute/App_Service_Plans.svg;fontSize=12;" vertex="1" parent="1">
          <mxGeometry x="1260" y="120" width="68" height="68" as="geometry" />
        </mxCell>
        
        <mxCell id="deploy-label" value="Deployment&#xa;Stage" style="text;html=1;strokeColor=none;fillColor=none;align=center;verticalAlign=middle;whiteSpace=wrap;rounded=0;fontSize=10;" vertex="1" parent="1">
          <mxGeometry x="1240" y="195" width="108" height="30" as="geometry" />
        </mxCell>
        
        <!-- Pipeline Steps -->
        <mxCell id="pipeline-steps" value="Pipeline Steps:&#xa;• dotnet build &amp; test&#xa;• Code coverage report&#xa;• CodeQL analysis&#xa;• Credential scanning&#xa;• Azure deployment" style="text;html=1;strokeColor=none;fillColor=none;align=left;verticalAlign=top;whiteSpace=wrap;rounded=0;fontSize=9;fontColor=#333;" vertex="1" parent="1">
          <mxGeometry x="970" y="220" width="200" height="50" as="geometry" />
        </mxCell>
        
        <!-- Azure Deployment Phase -->
        <mxCell id="azure-phase" value="Azure Infrastructure Deployment" style="rounded=1;whiteSpace=wrap;html=1;fillColor=#F0F8FF;strokeColor=#4169E1;strokeWidth=2;fontStyle=1;fontSize=14;fontColor=#191970;verticalAlign=top;" vertex="1" parent="1">
          <mxGeometry x="50" y="320" width="1300" height="280" as="geometry" />
        </mxCell>
        
        <!-- Azure Developer CLI -->
        <mxCell id="azd-cli" value="" style="image;aspect=fixed;perimeter=ellipsePerimeter;html=1;align=center;shadow=0;dashed=0;spacingTop=3;image=img/lib/azure2/other/Azure_CLI.svg;fontSize=12;" vertex="1" parent="1">
          <mxGeometry x="100" y="360" width="68" height="68" as="geometry" />
        </mxCell>
        
        <mxCell id="azd-label" value="Azure Developer&#xa;CLI (azd)" style="text;html=1;strokeColor=none;fillColor=none;align=center;verticalAlign=middle;whiteSpace=wrap;rounded=0;fontSize=10;" vertex="1" parent="1">
          <mxGeometry x="80" y="435" width="108" height="30" as="geometry" />
        </mxCell>
        
        <!-- Bicep Templates -->
        <mxCell id="bicep-templates" value="" style="image;aspect=fixed;perimeter=ellipsePerimeter;html=1;align=center;shadow=0;dashed=0;spacingTop=3;image=img/lib/azure2/other/Azure_Resource_Manager.svg;fontSize=12;" vertex="1" parent="1">
          <mxGeometry x="250" y="360" width="68" height="68" as="geometry" />
        </mxCell>
        
        <mxCell id="bicep-label" value="Bicep Templates&#xa;(Infrastructure)" style="text;html=1;strokeColor=none;fillColor=none;align=center;verticalAlign=middle;whiteSpace=wrap;rounded=0;fontSize=10;" vertex="1" parent="1">
          <mxGeometry x="230" y="435" width="108" height="30" as="geometry" />
        </mxCell>
        
        <!-- Resource Group -->
        <mxCell id="resource-group" value="" style="image;aspect=fixed;perimeter=ellipsePerimeter;html=1;align=center;shadow=0;dashed=0;spacingTop=3;image=img/lib/azure2/management_governance/Resource_Groups.svg;fontSize=12;" vertex="1" parent="1">
          <mxGeometry x="400" y="360" width="68" height="68" as="geometry" />
        </mxCell>
        
        <mxCell id="rg-label" value="Resource Group&#xa;Creation" style="text;html=1;strokeColor=none;fillColor=none;align=center;verticalAlign=middle;whiteSpace=wrap;rounded=0;fontSize=10;" vertex="1" parent="1">
          <mxGeometry x="380" y="435" width="108" height="30" as="geometry" />
        </mxCell>
        
        <!-- Function App -->
        <mxCell id="func-deploy" value="" style="image;aspect=fixed;perimeter=ellipsePerimeter;html=1;align=center;shadow=0;dashed=0;spacingTop=3;image=img/lib/azure2/compute/Function_Apps.svg;fontSize=12;" vertex="1" parent="1">
          <mxGeometry x="550" y="360" width="68" height="60" as="geometry" />
        </mxCell>
        
        <mxCell id="func-deploy-label" value="Function App&#xa;Deployment" style="text;html=1;strokeColor=none;fillColor=none;align=center;verticalAlign=middle;whiteSpace=wrap;rounded=0;fontSize=10;" vertex="1" parent="1">
          <mxGeometry x="530" y="430" width="108" height="30" as="geometry" />
        </mxCell>
        
        <!-- Communication Services -->
        <mxCell id="acs-deploy" value="" style="image;aspect=fixed;perimeter=ellipsePerimeter;html=1;align=center;shadow=0;dashed=0;spacingTop=3;image=img/lib/azure2/other/Azure_Communication_Services.svg;fontSize=12;" vertex="1" parent="1">
          <mxGeometry x="700" y="360" width="68" height="68" as="geometry" />
        </mxCell>
        
        <mxCell id="acs-deploy-label" value="Communication&#xa;Services Setup" style="text;html=1;strokeColor=none;fillColor=none;align=center;verticalAlign=middle;whiteSpace=wrap;rounded=0;fontSize=10;" vertex="1" parent="1">
          <mxGeometry x="680" y="435" width="108" height="30" as="geometry" />
        </mxCell>
        
        <!-- RBAC Configuration -->
        <mxCell id="rbac-deploy" value="" style="image;aspect=fixed;perimeter=ellipsePerimeter;html=1;align=center;shadow=0;dashed=0;spacingTop=3;image=img/lib/azure2/identity/Managed_Identities.svg;fontSize=12;" vertex="1" parent="1">
          <mxGeometry x="850" y="360" width="68" height="68" as="geometry" />
        </mxCell>
        
        <mxCell id="rbac-deploy-label" value="RBAC &amp; Identity&#xa;Configuration" style="text;html=1;strokeColor=none;fillColor=none;align=center;verticalAlign=middle;whiteSpace=wrap;rounded=0;fontSize=10;" vertex="1" parent="1">
          <mxGeometry x="830" y="435" width="108" height="30" as="geometry" />
        </mxCell>
        
        <!-- Monitoring Setup -->
        <mxCell id="monitoring-deploy" value="" style="image;aspect=fixed;perimeter=ellipsePerimeter;html=1;align=center;shadow=0;dashed=0;spacingTop=3;image=img/lib/azure2/other/Application_Insights.svg;fontSize=12;" vertex="1" parent="1">
          <mxGeometry x="1000" y="360" width="68" height="68" as="geometry" />
        </mxCell>
        
        <mxCell id="monitoring-deploy-label" value="Monitoring &amp;&#xa;Observability" style="text;html=1;strokeColor=none;fillColor=none;align=center;verticalAlign=middle;whiteSpace=wrap;rounded=0;fontSize=10;" vertex="1" parent="1">
          <mxGeometry x="980" y="435" width="108" height="30" as="geometry" />
        </mxCell>
        
        <!-- API Management -->
        <mxCell id="apim-deploy" value="" style="image;aspect=fixed;perimeter=ellipsePerimeter;html=1;align=center;shadow=0;dashed=0;spacingTop=3;image=img/lib/azure2/app_services/API_Management_Services.svg;fontSize=12;" vertex="1" parent="1">
          <mxGeometry x="1150" y="360" width="68" height="62" as="geometry" />
        </mxCell>
        
        <mxCell id="apim-deploy-label" value="API Management&#xa;Setup" style="text;html=1;strokeColor=none;fillColor=none;align=center;verticalAlign=middle;whiteSpace=wrap;rounded=0;fontSize=10;" vertex="1" parent="1">
          <mxGeometry x="1130" y="430" width="108" height="30" as="geometry" />
        </mxCell>
        
        <!-- Deployment Flow Arrows -->
        <mxCell id="azd-to-bicep" value="1" style="edgeStyle=orthogonalEdgeStyle;rounded=0;orthogonalLoop=1;jettySize=auto;html=1;strokeColor=#4169E1;strokeWidth=2;fontSize=10;fontColor=#4169E1;" edge="1" parent="1" source="azd-cli" target="bicep-templates">
          <mxGeometry relative="1" as="geometry" />
        </mxCell>
        
        <mxCell id="bicep-to-rg" value="2" style="edgeStyle=orthogonalEdgeStyle;rounded=0;orthogonalLoop=1;jettySize=auto;html=1;strokeColor=#4169E1;strokeWidth=2;fontSize=10;fontColor=#4169E1;" edge="1" parent="1" source="bicep-templates" target="resource-group">
          <mxGeometry relative="1" as="geometry" />
        </mxCell>
        
        <mxCell id="rg-to-func" value="3" style="edgeStyle=orthogonalEdgeStyle;rounded=0;orthogonalLoop=1;jettySize=auto;html=1;strokeColor=#4169E1;strokeWidth=2;fontSize=10;fontColor=#4169E1;" edge="1" parent="1" source="resource-group" target="func-deploy">
          <mxGeometry relative="1" as="geometry" />
        </mxCell>
        
        <mxCell id="func-to-acs" value="4" style="edgeStyle=orthogonalEdgeStyle;rounded=0;orthogonalLoop=1;jettySize=auto;html=1;strokeColor=#4169E1;strokeWidth=2;fontSize=10;fontColor=#4169E1;" edge="1" parent="1" source="func-deploy" target="acs-deploy">
          <mxGeometry relative="1" as="geometry" />
        </mxCell>
        
        <mxCell id="acs-to-rbac" value="5" style="edgeStyle=orthogonalEdgeStyle;rounded=0;orthogonalLoop=1;jettySize=auto;html=1;strokeColor=#4169E1;strokeWidth=2;fontSize=10;fontColor=#4169E1;" edge="1" parent="1" source="acs-deploy" target="rbac-deploy">
          <mxGeometry relative="1" as="geometry" />
        </mxCell>
        
        <mxCell id="rbac-to-monitoring" value="6" style="edgeStyle=orthogonalEdgeStyle;rounded=0;orthogonalLoop=1;jettySize=auto;html=1;strokeColor=#4169E1;strokeWidth=2;fontSize=10;fontColor=#4169E1;" edge="1" parent="1" source="rbac-deploy" target="monitoring-deploy">
          <mxGeometry relative="1" as="geometry" />
        </mxCell>
        
        <mxCell id="monitoring-to-apim" value="7" style="edgeStyle=orthogonalEdgeStyle;rounded=0;orthogonalLoop=1;jettySize=auto;html=1;strokeColor=#4169E1;strokeWidth=2;fontSize=10;fontColor=#4169E1;" edge="1" parent="1" source="monitoring-deploy" target="apim-deploy">
          <mxGeometry relative="1" as="geometry" />
        </mxCell>
        
        <!-- Deployment Configuration -->
        <mxCell id="deploy-config" value="Deployment Configuration:&#xa;• Environment-specific parameters&#xa;• Resource naming conventions&#xa;• Network topology (VNet optional)&#xa;• Security policies and RBAC&#xa;• Monitoring and alerting setup&#xa;• Domain configuration verification" style="text;html=1;strokeColor=none;fillColor=none;align=left;verticalAlign=top;whiteSpace=wrap;rounded=0;fontSize=10;fontColor=#333;" vertex="1" parent="1">
          <mxGeometry x="100" y="480" width="300" height="100" as="geometry" />
        </mxCell>
        
        <!-- Monitoring &amp; Operations Phase -->
        <mxCell id="ops-phase" value="Monitoring &amp; Operations" style="rounded=1;whiteSpace=wrap;html=1;fillColor=#FFF8DC;strokeColor=#DDD700;strokeWidth=2;fontStyle=1;fontSize=14;fontColor=#8B8000;verticalAlign=top;" vertex="1" parent="1">
          <mxGeometry x="50" y="640" width="1300" height="200" as="geometry" />
        </mxCell>
        
        <!-- Application Insights -->
        <mxCell id="app-insights-ops" value="" style="image;aspect=fixed;perimeter=ellipsePerimeter;html=1;align=center;shadow=0;dashed=0;spacingTop=3;image=img/lib/azure2/other/Application_Insights.svg;fontSize=12;" vertex="1" parent="1">
          <mxGeometry x="100" y="680" width="68" height="68" as="geometry" />
        </mxCell>
        
        <mxCell id="insights-ops-label" value="Application Insights&#xa;Telemetry" style="text;html=1;strokeColor=none;fillColor=none;align=center;verticalAlign=middle;whiteSpace=wrap;rounded=0;fontSize=10;" vertex="1" parent="1">
          <mxGeometry x="80" y="755" width="108" height="30" as="geometry" />
        </mxCell>
        
        <!-- Health Checks -->
        <mxCell id="health-ops" value="" style="image;aspect=fixed;perimeter=ellipsePerimeter;html=1;align=center;shadow=0;dashed=0;spacingTop=3;image=img/lib/azure2/other/Azure_Monitor.svg;fontSize=12;" vertex="1" parent="1">
          <mxGeometry x="250" y="680" width="68" height="68" as="geometry" />
        </mxCell>
        
        <mxCell id="health-ops-label" value="Health Checks&#xa;(/api/healthz)" style="text;html=1;strokeColor=none;fillColor=none;align=center;verticalAlign=middle;whiteSpace=wrap;rounded=0;fontSize=10;" vertex="1" parent="1">
          <mxGeometry x="230" y="755" width="108" height="30" as="geometry" />
        </mxCell>
        
        <!-- Log Analytics -->
        <mxCell id="logs-ops" value="" style="image;aspect=fixed;perimeter=ellipsePerimeter;html=1;align=center;shadow=0;dashed=0;spacingTop=3;image=img/lib/azure2/other/Log_Analytics_Workspaces.svg;fontSize=12;" vertex="1" parent="1">
          <mxGeometry x="400" y="680" width="68" height="68" as="geometry" />
        </mxCell>
        
        <mxCell id="logs-ops-label" value="Log Analytics&#xa;Centralized Logs" style="text;html=1;strokeColor=none;fillColor=none;align=center;verticalAlign=middle;whiteSpace=wrap;rounded=0;fontSize=10;" vertex="1" parent="1">
          <mxGeometry x="380" y="755" width="108" height="30" as="geometry" />
        </mxCell>
        
        <!-- Alerts -->
        <mxCell id="alerts-ops" value="" style="image;aspect=fixed;perimeter=ellipsePerimeter;html=1;align=center;shadow=0;dashed=0;spacingTop=3;image=img/lib/azure2/other/Azure_Alerts.svg;fontSize=12;" vertex="1" parent="1">
          <mxGeometry x="550" y="680" width="68" height="68" as="geometry" />
        </mxCell>
        
        <mxCell id="alerts-ops-label" value="Alerts &amp;&#xa;Notifications" style="text;html=1;strokeColor=none;fillColor=none;align=center;verticalAlign=middle;whiteSpace=wrap;rounded=0;fontSize=10;" vertex="1" parent="1">
          <mxGeometry x="530" y="755" width="108" height="30" as="geometry" />
        </mxCell>
        
        <!-- Performance Metrics -->
        <mxCell id="perf-ops" value="" style="image;aspect=fixed;perimeter=ellipsePerimeter;html=1;align=center;shadow=0;dashed=0;spacingTop=3;image=img/lib/azure2/other/Azure_Metrics.svg;fontSize=12;" vertex="1" parent="1">
          <mxGeometry x="700" y="680" width="68" height="68" as="geometry" />
        </mxCell>
        
        <mxCell id="perf-ops-label" value="Performance&#xa;Metrics" style="text;html=1;strokeColor=none;fillColor=none;align=center;verticalAlign=middle;whiteSpace=wrap;rounded=0;fontSize=10;" vertex="1" parent="1">
          <mxGeometry x="680" y="755" width="108" height="30" as="geometry" />
        </mxCell>
        
        <!-- Cost Management -->
        <mxCell id="cost-ops" value="" style="image;aspect=fixed;perimeter=ellipsePerimeter;html=1;align=center;shadow=0;dashed=0;spacingTop=3;image=img/lib/azure2/management_governance/Cost_Management_Billing.svg;fontSize=12;" vertex="1" parent="1">
          <mxGeometry x="850" y="680" width="68" height="68" as="geometry" />
        </mxCell>
        
        <mxCell id="cost-ops-label" value="Cost Management&#xa;&amp; Optimization" style="text;html=1;strokeColor=none;fillColor=none;align=center;verticalAlign=middle;whiteSpace=wrap;rounded=0;fontSize=10;" vertex="1" parent="1">
          <mxGeometry x="830" y="755" width="108" height="30" as="geometry" />
        </mxCell>
        
        <!-- Security Monitoring -->
        <mxCell id="security-ops" value="" style="image;aspect=fixed;perimeter=ellipsePerimeter;html=1;align=center;shadow=0;dashed=0;spacingTop=3;image=img/lib/azure2/security/Azure_Sentinel.svg;fontSize=12;" vertex="1" parent="1">
          <mxGeometry x="1000" y="680" width="68" height="68" as="geometry" />
        </mxCell>
        
        <mxCell id="security-ops-label" value="Security&#xa;Monitoring" style="text;html=1;strokeColor=none;fillColor=none;align=center;verticalAlign=middle;whiteSpace=wrap;rounded=0;fontSize=10;" vertex="1" parent="1">
          <mxGeometry x="980" y="755" width="108" height="30" as="geometry" />
        </mxCell>
        
        <!-- Backup &amp; Recovery -->
        <mxCell id="backup-ops" value="" style="image;aspect=fixed;perimeter=ellipsePerimeter;html=1;align=center;shadow=0;dashed=0;spacingTop=3;image=img/lib/azure2/storage/Azure_Backup.svg;fontSize=12;" vertex="1" parent="1">
          <mxGeometry x="1150" y="680" width="68" height="68" as="geometry" />
        </mxCell>
        
        <mxCell id="backup-ops-label" value="Backup &amp;&#xa;Recovery" style="text;html=1;strokeColor=none;fillColor=none;align=center;verticalAlign=middle;whiteSpace=wrap;rounded=0;fontSize=10;" vertex="1" parent="1">
          <mxGeometry x="1130" y="755" width="108" height="30" as="geometry" />
        </mxCell>
        
        <!-- Development Flow Arrows -->
        <mxCell id="dev-to-repo" value="Git Push" style="edgeStyle=orthogonalEdgeStyle;rounded=0;orthogonalLoop=1;jettySize=auto;html=1;strokeColor=#0078D4;strokeWidth=2;fontSize=9;fontColor=#0078D4;" edge="1" parent="1" source="local-testing" target="github-repo">
          <mxGeometry relative="1" as="geometry">
            <Array as="points">
              <mxPoint x="400" y="60" />
              <mxPoint x="555" y="60" />
            </Array>
          </mxGeometry>
        </mxCell>
        
        <mxCell id="repo-to-pipeline" value="PR Trigger" style="edgeStyle=orthogonalEdgeStyle;rounded=0;orthogonalLoop=1;jettySize=auto;html=1;strokeColor=#32CD32;strokeWidth=2;fontSize=9;fontColor=#32CD32;" edge="1" parent="1" source="branch-protection" target="build-stage">
          <mxGeometry relative="1" as="geometry">
            <Array as="points">
              <mxPoint x="684" y="60" />
              <mxPoint x="1014" y="60" />
            </Array>
          </mxGeometry>
        </mxCell>
        
        <mxCell id="pipeline-to-azure" value="azd deploy" style="edgeStyle=orthogonalEdgeStyle;rounded=0;orthogonalLoop=1;jettySize=auto;html=1;strokeColor=#FF69B4;strokeWidth=2;fontSize=9;fontColor=#FF69B4;" edge="1" parent="1" source="deploy-stage" target="azd-cli">
          <mxGeometry relative="1" as="geometry">
            <Array as="points">
              <mxPoint x="1294" y="300" />
              <mxPoint x="134" y="300" />
            </Array>
          </mxGeometry>
        </mxCell>
        
        <!-- Key Metrics -->
        <mxCell id="key-metrics" value="Key Operational Metrics:&#xa;• Function execution time &amp; success rate&#xa;• Email delivery rate &amp; bounce rate&#xa;• API response times &amp; error rates&#xa;• Resource utilization &amp; cost trends&#xa;• Security incidents &amp; compliance status&#xa;• System availability &amp; uptime SLA" style="text;html=1;strokeColor=none;fillColor=none;align=left;verticalAlign=top;whiteSpace=wrap;rounded=0;fontSize=10;fontColor=#333;" vertex="1" parent="1">
          <mxGeometry x="100" y="800" width="400" height="90" as="geometry" />
        </mxCell>
        
        <!-- Automation Features -->
        <mxCell id="automation" value="Automation Features:&#xa;• Auto-scaling based on demand&#xa;• Automated deployment rollbacks&#xa;• Self-healing infrastructure&#xa;• Automated security patching&#xa;• Cost optimization recommendations&#xa;• Proactive alerting &amp; remediation" style="text;html=1;strokeColor=none;fillColor=none;align=left;verticalAlign=top;whiteSpace=wrap;rounded=0;fontSize=10;fontColor=#333;" vertex="1" parent="1">
          <mxGeometry x="550" y="800" width="400" height="90" as="geometry" />
        </mxCell>
        
        <!-- Compliance -->
        <mxCell id="compliance" value="Compliance &amp; Governance:&#xa;• Azure Policy enforcement&#xa;• Resource tagging strategy&#xa;• RBAC principle of least privilege&#xa;• Audit logging &amp; retention&#xa;• Data residency compliance&#xa;• Privacy &amp; GDPR considerations" style="text;html=1;strokeColor=none;fillColor=none;align=left;verticalAlign=top;whiteSpace=wrap;rounded=0;fontSize=10;fontColor=#333;" vertex="1" parent="1">
          <mxGeometry x="1000" y="800" width="350" height="90" as="geometry" />
        </mxCell>
        
      </root>
    </mxGraphModel>
  </diagram>
</mxfile>